<?xml version="1.0" encoding="iso-8859-1"?>
<!-- Generator: Adobe Illustrator 19.0.0, SVG Export Plug-In . SVG Version: 6.00 Build 0)  -->
<svg version="1.1" id="Capa_1" xmlns="http://www.w3.org/2000/svg" xmlns:xlink="http://www.w3.org/1999/xlink" x="0px" y="0px"
	 viewBox="0 0 426.667 426.667" style="enable-background:new 0 0 426.667 426.667;" xml:space="preserve">
<rect x="92.8" y="416.435" style="fill:#DC8744;" width="241.067" height="10.231"/>
<g>
	<rect x="232.397" y="105.02" style="fill:#2F4859;" width="10.005" height="65.186"/>
	<rect x="256.29" y="80.631" style="fill:#2F4859;" width="10.005" height="81.152"/>
</g>
<rect x="182.336" y="169.318" style="fill:#FCD462;" width="141.099" height="247.211"/>
<rect x="276.689" y="173.069" style="fill:#3A556A;" width="42.923" height="37.201"/>
<polygon style="fill:#64798A;" points="276.687,210.272 276.687,173.069 319.606,173.069 "/>
<rect x="231.543" y="173.069" style="fill:#3A556A;" width="42.923" height="37.201"/>
<polygon style="fill:#64798A;" points="231.525,210.272 231.525,173.069 274.444,173.069 "/>
<rect x="186.505" y="173.069" style="fill:#3A556A;" width="42.923" height="37.201"/>
<polygon style="fill:#64798A;" points="186.503,210.272 186.503,173.069 229.422,173.069 "/>
<rect x="276.617" y="213.461" style="fill:#3A556A;" width="42.923" height="37.201"/>
<polygon style="fill:#64798A;" points="276.617,250.648 276.617,213.445 319.536,213.445 "/>
<rect x="231.458" y="213.461" style="fill:#3A556A;" width="42.923" height="37.201"/>
<polygon style="fill:#64798A;" points="231.455,250.648 231.455,213.445 274.374,213.445 "/>
<rect x="186.432" y="213.461" style="fill:#3A556A;" width="42.923" height="37.201"/>
<polygon style="fill:#64798A;" points="186.433,250.648 186.433,213.445 229.352,213.445 "/>
<rect x="276.548" y="253.824" style="fill:#3A556A;" width="42.923" height="37.201"/>
<polygon style="fill:#64798A;" points="276.547,291.023 276.547,253.82 319.466,253.82 "/>
<rect x="231.373" y="253.824" style="fill:#3A556A;" width="42.923" height="37.201"/>
<polygon style="fill:#64798A;" points="231.385,291.023 231.385,253.82 274.304,253.82 "/>
<rect x="186.364" y="253.824" style="fill:#3A556A;" width="42.923" height="37.201"/>
<polygon style="fill:#64798A;" points="186.363,291.023 186.363,253.82 229.282,253.82 "/>
<rect x="276.471" y="294.195" style="fill:#3A556A;" width="42.923" height="37.201"/>
<polygon style="fill:#64798A;" points="276.477,331.399 276.477,294.196 319.396,294.196 "/>
<rect x="231.33" y="294.195" style="fill:#3A556A;" width="42.923" height="37.201"/>
<polygon style="fill:#64798A;" points="231.315,331.399 231.315,294.196 274.234,294.196 "/>
<rect x="186.291" y="294.195" style="fill:#3A556A;" width="42.923" height="37.201"/>
<polygon style="fill:#64798A;" points="186.293,331.399 186.293,294.196 229.212,294.196 "/>
<rect x="276.386" y="334.592" style="fill:#3A556A;" width="42.923" height="37.201"/>
<polygon style="fill:#64798A;" points="276.407,371.775 276.407,334.572 319.326,334.572 "/>
<rect x="231.245" y="334.592" style="fill:#3A556A;" width="42.923" height="37.201"/>
<polygon style="fill:#64798A;" points="231.244,371.775 231.244,334.572 274.164,334.572 "/>
<rect x="186.223" y="334.592" style="fill:#3A556A;" width="42.923" height="37.201"/>
<polygon style="fill:#64798A;" points="186.222,371.775 186.222,334.572 229.142,334.572 "/>
<rect x="276.343" y="374.955" style="fill:#3A556A;" width="42.923" height="37.201"/>
<polygon style="fill:#64798A;" points="276.337,412.151 276.337,374.948 319.256,374.948 "/>
<rect x="231.16" y="374.955" style="fill:#3A556A;" width="42.923" height="37.201"/>
<polygon style="fill:#64798A;" points="231.174,412.151 231.174,374.948 274.093,374.948 "/>
<rect x="186.15" y="374.955" style="fill:#3A556A;" width="42.923" height="37.201"/>
<polygon style="fill:#64798A;" points="186.152,412.151 186.152,374.948 229.071,374.948 "/>
<rect x="203.695" y="157.542" style="fill:#1C75A1;" width="91.294" height="11.772"/>
<path style="fill:#44C4A1;" d="M250.603,416.435H102.467V148.136C102.467,66.323,168.789,0,250.603,0h0V416.435z"/>
<rect x="115.371" y="96.171" style="fill:#3A556A;" width="17.954" height="304.811"/>
<polygon style="fill:#64798A;" points="133.342,400.987 133.342,96.172 115.388,96.172 "/>
<rect x="141.312" y="76.109" style="fill:#3A556A;" width="17.954" height="325.973"/>
<polygon style="fill:#64798A;" points="159.235,402.072 159.235,76.084 141.281,76.084 "/>
<rect x="165.999" y="53.82" style="fill:#3A556A;" width="17.954" height="347.179"/>
<polygon style="fill:#64798A;" points="183.936,400.987 183.936,53.827 165.982,53.827 "/>
<rect x="195.085" y="32.627" style="fill:#3A556A;" width="17.954" height="368.341"/>
<polygon style="fill:#64798A;" points="213.048,400.987 213.048,32.655 195.094,32.655 "/>
<rect x="225.08" y="11.473" style="fill:#3A556A;" width="17.954" height="389.504"/>
<polygon style="fill:#64798A;" points="243.042,400.987 243.042,11.482 225.089,11.482 "/>
<g>
</g>
<g>
</g>
<g>
</g>
<g>
</g>
<g>
</g>
<g>
</g>
<g>
</g>
<g>
</g>
<g>
</g>
<g>
</g>
<g>
</g>
<g>
</g>
<g>
</g>
<g>
</g>
<g>
</g>
</svg>
