<svg fill="#fff" height="448pt" viewBox="-8 0 448 448" width="448pt" xmlns="http://www.w3.org/2000/svg"><path fill="#00bfff" d="m144 272c0-39.765625-32.234375-72-72-72s-72 32.234375-72 72 32.234375 72 72 72c39.746094-.042969 71.957031-32.253906 72-72zm-40 2.222656v-42.222656h16v42.222656c4.945312 2.824219 7.996094 8.082032 7.996094 13.777344s-3.050782 10.953125-7.996094 13.777344v10.222656h-16v-10.222656c-4.945312-2.824219-7.996094-8.082032-7.996094-13.777344s3.050782-10.953125 7.996094-13.777344zm-64 27.554688v10.222656h-16v-10.222656c-4.945312-2.824219-7.996094-8.082032-7.996094-13.777344s3.050782-10.953125 7.996094-13.777344v-42.222656h16v42.222656c4.945312 2.824219 7.996094 8.082032 7.996094 13.777344s-3.050782 10.953125-7.996094 13.777344zm16-53.777344c.015625-5.691406 3.066406-10.941406 8-13.777344v-18.222656h16v18.222656c4.945312 2.824219 7.996094 8.082032 7.996094 13.777344s-3.050782 10.953125-7.996094 13.777344v66.222656h-16v-66.222656c-4.933594-2.835938-7.984375-8.085938-8-13.777344zm0 0"/><path d="m336 208c0 4.417969-3.582031 8-8 8s-8-3.582031-8-8 3.582031-8 8-8 8 3.582031 8 8zm0 0"/><path d="m365.535156 194.296875c-.34375-1.105469-.796875-2.179687-1.34375-3.199219-1.621094-3.101562-1.042968-6.894531 1.433594-9.371094l13.304688-13.300781-11.328126-11.355469-13.304687 13.328126c-2.472656 2.476562-6.269531 3.054687-9.367187 1.433593-1.039063-.554687-2.125-1.007812-3.25-1.351562-3.382813-1.023438-5.691407-4.148438-5.679688-7.679688v-18.800781h-16v18.800781c0 3.523438-2.308594 6.632813-5.679688 7.65625-1.125.339844-2.210937.792969-3.25 1.351563-3.097656 1.621094-6.894531 1.042968-9.367187-1.433594l-13.304687-13.304688-11.328126 11.328126 13.328126 13.304687c2.476562 2.472656 3.054687 6.269531 1.433593 9.367187-.546875 1.023438-.996093 2.09375-1.34375 3.203126-1.007812 3.402343-4.136719 5.734374-7.6875 5.726562h-18.800781v16h18.800781c3.535157 0 6.648438 2.320312 7.664063 5.703125.34375 1.105469.796875 2.179687 1.34375 3.199219 1.621094 3.101562 1.042968 6.894531-1.433594 9.371094l-13.304688 13.328124 11.328126 11.328126 13.304687-13.328126c2.472656-2.476562 6.269531-3.054687 9.367187-1.433593 1.039063.554687 2.125 1.007812 3.25 1.351562 3.371094 1.023438 5.679688 4.132813 5.679688 7.65625v18.824219h16v-18.800781c0-3.523438 2.308594-6.632813 5.679688-7.65625 1.125-.339844 2.210937-.792969 3.25-1.351563 3.097656-1.621094 6.894531-1.042968 9.367187 1.433594l13.304687 13.304688 11.328126-11.328126-13.328126-13.304687c-2.476562-2.472656-3.054687-6.269531-1.433593-9.367187.546875-1.023438.996093-2.09375 1.34375-3.203126 1.007812-3.402343 4.136719-5.734374 7.6875-5.726562h18.800781v-16h-18.800781c-3.535157 0-6.648438-2.320312-7.664063-5.703125zm-37.535156 37.703125c-13.253906 0-24-10.746094-24-24s10.746094-24 24-24 24 10.746094 24 24-10.746094 24-24 24zm0 0"/><path fill="#00bfff" d="m328 104c-57.4375 0-104 46.5625-104 104s46.5625 104 104 104 104-46.5625 104-104c-.066406-57.410156-46.589844-103.933594-104-104zm72 128h-14.046875l9.941406 9.945312c3.125 3.121094 3.125 8.1875 0 11.3125l-22.636719 22.636719c-3.125 3.125-8.191406 3.125-11.3125 0l-9.945312-9.941406v14.046875c0 4.417969-3.582031 8-8 8h-32c-4.417969 0-8-3.582031-8-8v-14.046875l-9.945312 9.941406c-3.121094 3.125-8.1875 3.125-11.3125 0l-22.636719-22.636719c-3.125-3.125-3.125-8.191406 0-11.3125l9.941406-9.945312h-14.046875c-4.417969 0-8-3.582031-8-8v-32c0-4.417969 3.582031-8 8-8h14.046875l-9.941406-9.945312c-3.125-3.121094-3.125-8.1875 0-11.3125l22.636719-22.636719c3.125-3.125 8.191406-3.125 11.3125 0l9.945312 9.941406v-14.046875c0-4.417969 3.582031-8 8-8h32c4.417969 0 8 3.582031 8 8v14.046875l9.945312-9.941406c3.121094-3.125 8.1875-3.125 11.3125 0l22.636719 22.636719c3.125 3.125 3.125 8.191406 0 11.3125l-9.941406 9.945312h14.046875c4.417969 0 8 3.582031 8 8v32c0 4.417969-3.582031 8-8 8zm0 0"/><path d="m80 32h256v-16c0-4.800781-10.136719-16-24-16h-208c-13.253906 0-24 10.746094-24 24zm120-24h16v16h-16zm0 0"/><path d="m328 88c2.703125 0 5.34375.230469 8 .40625v-40.40625h-256v136.40625c45.347656 4.070312 80.089844 42.074219 80.089844 87.601562 0 45.527344-34.742188 83.53125-80.089844 87.601563v40.390625h104v16h-104v8c0 13.253906 10.746094 24 24 24h208c13.253906 0 24-10.746094 24-24v-8h-104v-16h104v-72.40625c-2.65625.175781-5.296875.40625-8 .40625-66.273438 0-120-53.726562-120-120s53.726562-120 120-120zm-112 312v16h-16v-16zm0 0"/></svg>